<?xml version="1.0" encoding="UTF-8"?> <svg xmlns="http://www.w3.org/2000/svg" width="186" height="61" viewBox="0 0 186 61" fill="none"> <g clip-path="url(#clip0_1248_8091)"> <path d="M16.155 26.9004H26.3394V8.55496H42.4409V0.814758H0.0534668V8.55496H16.155V26.9004Z" fill="white"></path> <path d="M68.747 27.7085C86.5181 27.7085 93.4035 22.9802 93.4035 13.8509C93.4035 4.72159 86.5181 0 68.747 0C50.976 0 44.0906 4.72827 44.0906 13.8509C44.0906 22.9735 50.976 27.7085 68.747 27.7085ZM68.747 7.7402C77.1417 7.7402 82.3976 8.96234 82.3976 13.8509C82.3976 18.7394 77.1417 19.9683 68.747 19.9683C60.3524 19.9683 54.6891 18.7461 54.6891 13.8509C54.6891 8.95566 60.3524 7.7402 68.747 7.7402Z" fill="white"></path> <path d="M22.1923 44.224H10.218V41.8933H36.3838V34.6606H10.218H0.0268555V41.8933V60.7195H22.1923C30.3465 60.7195 36.8846 60.4056 36.8846 52.0377C36.8846 43.6697 30.3666 44.2106 22.1923 44.2106V44.224ZM28.9508 52.2247C28.9508 52.524 28.8319 52.8111 28.6202 53.0227C28.4085 53.2344 28.1215 53.3533 27.8221 53.3533H10.1245V51.1027H27.8221C28.1203 51.1027 28.4064 51.2207 28.6179 51.4309C28.8293 51.6411 28.949 51.9265 28.9508 52.2247Z" fill="white"></path> <path d="M54.602 34.0128L38.948 60.0918H50.2812L61.6944 38.9014L73.1011 60.0918H84.5945L68.7802 34.0128H54.602Z" fill="white"></path> <path d="M109.986 33.2849C92.2147 33.2849 85.3293 38.0131 85.3293 47.1424C85.3293 56.2717 92.2147 61 109.986 61C127.757 61 134.642 56.2717 134.642 47.1424C134.642 38.0131 127.757 33.2849 109.986 33.2849ZM109.986 53.2531C101.591 53.2531 95.9613 52.031 95.9613 47.1424C95.9613 42.2539 101.625 41.0318 109.986 41.0318C118.347 41.0318 123.636 42.2472 123.636 47.1424C123.636 52.0377 118.38 53.2531 109.986 53.2531Z" fill="white"></path> <path d="M139.083 59.8847H149.268V41.546H185.905V33.7991H139.083V59.8847Z" fill="white"></path> <path d="M145.127 0.6745H139.083H98.3054V26.7534H108.49V8.4147H139.083H145.127H175.721V26.7534H185.905V0.6745H145.127Z" fill="white"></path> </g> <defs> <clipPath id="clip0_1248_8091"> <rect width="185.905" height="61" fill="white"></rect> </clipPath> </defs> </svg> 